<?xml version="1.0" encoding="UTF-8"?>
<!-- Generated by Pixelmator Pro 3.7.1 -->
<svg width="2560" height="497" viewBox="0 0 2560 497" xmlns="http://www.w3.org/2000/svg">
    <path id="Path" fill="#f2efe7" fill-rule="evenodd" stroke="none" d="M 968 145 L 1024 145 L 1024 68 L 1127 36 L 1127 145 L 1206 145 L 1206 232 L 1125 232 L 1125 373 C 1125 373 1125.911499 382.708588 1128 387 C 1130.278442 391.681854 1133.745728 395.997894 1138 399 C 1143.514648 402.891541 1144.727783 403.607635 1151.314819 405.079681 C 1155.145142 405.935669 1164.738159 407.483429 1168.667236 407.829407 C 1172.442139 408.161774 1176.23645 408.234314 1180 408 C 1184.763428 407.70343 1189.395752 406.256531 1194 405 C 1198.067627 403.889893 1206 401 1206 401 L 1206 488 C 1206 488 1168.186157 496.045227 1149 496 C 1128.116821 495.950775 1106.590332 494.23407 1087 487 C 1072.946045 481.810364 1058.870728 474.269958 1049 463 C 1036.912842 449.199432 1028.681274 431.148438 1026 413 C 1023.796021 398.082458 1025 390 1025 390 L 1025 232 L 968 232 L 968 145 Z"/>
    <path id="path1" fill="#f2efe7" fill-rule="evenodd" stroke="none" d="M 1255 497 L 1255 182 L 1355 145 L 1355 497 L 1255 497 Z"/>
    <path id="Shape" fill="#f2efe7" fill-rule="evenodd" stroke="none" d="M 1365 60 C 1365 26.862915 1338.137085 0 1305 0 C 1271.862915 0 1245 26.862915 1245 60 C 1245 93.137085 1271.862915 120 1305 120 C 1338.137085 120 1365 93.137085 1365 60 Z"/>
    <path id="path2" fill="#f2efe7" fill-rule="evenodd" stroke="none" d="M 1528 497 L 1630 497 L 1771 145 L 1666 145 L 1580 369 L 1495 145 L 1388 145 L 1528 497 Z"/>
    <path id="path3" fill="#f2efe7" fill-rule="evenodd" stroke="none" d="M 762 127 C 864.172668 127 947 209.827332 947 312 C 947 414.172668 864.172668 497 762 497 C 659.827332 497 577 414.172668 577 312 C 577 209.827332 659.827332 127 762 127 Z M 762 220 C 812.810181 220 854 261.189819 854 312 C 854 362.810181 812.810181 404 762 404 C 711.189819 404 670 362.810181 670 312 C 670 261.189819 711.189819 220 762 220 Z"/>
    <path id="path4" fill="#f2efe7" fill-rule="evenodd" stroke="none" d="M 1953 127 C 2055.172607 127 2138 209.827332 2138 312 C 2138 325.103882 2137.304688 338.25174 2135.477539 351 L 1866.977905 351 C 1882.116211 386.285065 1917.171875 411 1958 411 C 1983.456299 411 2006.668701 401.392029 2024.208374 385.604584 L 2112.460693 413.607697 C 2079.063232 464.647705 2018.474487 497 1953 497 C 1850.827271 497 1768 414.172668 1768 312 C 1768 209.827332 1850.827271 127 1953 127 Z M 1954.906372 201.45578 C 1997.432739 201.45578 2035.567749 235.253143 2050.41626 276 L 1864.802856 276 C 1877.987793 235.253143 1912.380005 201.45578 1954.906372 201.45578 Z"/>
    <path id="path5" fill="#ff6a1a" fill-rule="evenodd" stroke="none" d="M 2213 497 L 2213 108 L 2133 135 L 2108 52 L 2213 0 L 2313 0 L 2313 497 L 2213 497 Z"/>
    <path id="Path-copy" fill="#ff6a1a" fill-rule="evenodd" stroke="none" d="M 2455 497 L 2455 108 L 2375 135 L 2350 52 L 2455 0 L 2555 0 L 2555 497 L 2455 497 Z"/>
    <path id="path6" fill="#f2efe7" fill-rule="evenodd" stroke="none" d="M 0 497 L 0 0 L 100 0 L 263.912598 267.70871 L 425 0 L 525 0 L 525 497 L 420 497 L 420 201 L 298 398 L 229 398 L 104 201 L 104 497 L 0 497 Z"/>
</svg>
